<?xml version="1.0" encoding="UTF-8" standalone="no"?>
<svg
   xmlns:dc="http://purl.org/dc/elements/1.1/"
   xmlns:cc="http://creativecommons.org/ns#"
   xmlns:rdf="http://www.w3.org/1999/02/22-rdf-syntax-ns#"
   xmlns:svg="http://www.w3.org/2000/svg"
   xmlns="http://www.w3.org/2000/svg"
   xmlns:sodipodi="http://sodipodi.sourceforge.net/DTD/sodipodi-0.dtd"
   xmlns:inkscape="http://www.inkscape.org/namespaces/inkscape"
   viewBox="0 0 300 300"
   fill="none"
   version="1.1"
   id="svg32"
   sodipodi:docname="bmc-black-circle.svg"
   inkscape:version="0.92.3 (2405546, 2018-03-11)">
  <metadata
     id="metadata38">
    <rdf:RDF>
      <cc:Work
         rdf:about="">
        <dc:format>image/svg+xml</dc:format>
        <dc:type
           rdf:resource="http://purl.org/dc/dcmitype/StillImage" />
        <dc:title />
      </cc:Work>
    </rdf:RDF>
  </metadata>
  <defs
     id="defs36" />
  <sodipodi:namedview
     pagecolor="#ffffff"
     bordercolor="#666666"
     borderopacity="1"
     objecttolerance="10"
     gridtolerance="10"
     guidetolerance="10"
     inkscape:pageopacity="0"
     inkscape:pageshadow="2"
     inkscape:window-width="1920"
     inkscape:window-height="1001"
     id="namedview34"
     showgrid="false"
     inkscape:pagecheckerboard="true"
     inkscape:zoom="1.5733333"
     inkscape:cx="0.8398211"
     inkscape:cy="139.41724"
     inkscape:window-x="-9"
     inkscape:window-y="-9"
     inkscape:window-maximized="1"
     inkscape:current-layer="svg32" />
  <path
     style="opacity:1;fill:#000000;fill-opacity:1;fill-rule:nonzero;stroke:none;stroke-width:0.94488192;stroke-linecap:round;stroke-linejoin:round;stroke-miterlimit:4;stroke-dasharray:none;stroke-dashoffset:0;stroke-opacity:1"
     d="M 150 0 A 150 150 0 0 0 0 150 A 150 150 0 0 0 150 300 A 150 150 0 0 0 300 150 A 150 150 0 0 0 150 0 z M 147.49023 30.1875 C 152.1152 30.193717 156.74058 30.325078 161.36133 30.580078 C 171.62733 31.131678 182.11866 32.099822 192.09766 34.732422 C 194.21766 35.257822 196.30652 35.903969 198.35352 36.667969 C 202.34752 38.213369 206.36283 40.548869 208.29883 44.542969 C 209.78583 47.517569 210.23759 51.159944 210.80859 54.402344 C 211.46959 58.173744 212.07766 61.954522 212.72266 65.732422 C 213.07066 67.790722 213.51548 70.010253 215.02148 71.439453 C 216.52848 72.868653 218.75766 73.165069 220.72266 73.855469 C 226.85266 76.013769 229.54061 81.657206 230.72461 87.628906 L 232.04492 94.285156 C 233.65492 100.69196 232.74641 107.04687 228.19141 111.92188 C 225.32941 114.98387 221.48394 116.32147 217.46094 117.10547 C 216.44094 117.30247 215.51059 117.82284 214.80859 118.58984 C 214.10659 119.35584 213.67145 120.32733 213.56445 121.36133 L 211.42578 142.20898 L 206.75977 187.69922 C 205.33377 201.62122 203.90656 215.54289 202.47656 229.46289 C 202.04556 233.67189 201.61555 237.87894 201.18555 242.08594 C 199.67955 256.65894 189.12173 266.05377 175.05273 268.63477 C 165.55773 270.38377 155.80925 270.01142 146.15625 269.85742 C 138.62625 269.73442 131.02547 269.49088 123.60547 268.29688 C 110.90047 266.25788 100.64002 259.01798 99.166016 245.58398 C 98.895016 243.12498 98.652631 240.65917 98.394531 238.20117 C 97.061031 225.36717 95.724666 212.53703 94.384766 199.70703 L 89.681641 154.53906 L 87.40625 132.70508 C 87.01265 128.93008 90.826441 126.07769 94.181641 125.92969 C 98.101541 125.75269 100.58903 129.19208 100.95703 132.70508 C 101.00503 133.19508 101.05642 133.67511 101.10742 134.16211 L 104.17578 163.61523 L 108.91992 209.13477 C 109.76492 217.32077 110.61656 225.50731 111.47656 233.69531 C 112.12156 239.88031 112.77758 247.03256 117.51758 251.60156 C 122.91158 256.80156 131.46903 257.4462 138.45703 257.4082 C 145.00303 257.3722 151.54775 257.66295 158.09375 257.62695 C 163.99775 257.57295 169.87872 256.88522 175.63672 255.57422 C 181.92072 254.14522 186.22714 250.23895 187.45312 243.87695 C 188.23112 239.83095 188.29013 235.60767 188.70312 231.51367 C 189.13312 227.35667 189.56219 223.19711 189.99219 219.03711 C 191.51719 204.26811 193.03406 189.49856 194.53906 174.72656 C 195.98206 160.66056 197.42614 146.59244 198.86914 132.52344 L 199.58594 125.5625 C 199.65994 124.8445 199.57113 124.11945 199.32812 123.43945 C 199.08512 122.76045 198.69269 122.14377 198.17969 121.63477 C 197.66769 121.12677 197.04919 120.738 196.36719 120.5 C 195.68619 120.262 194.96019 120.17981 194.24219 120.25781 C 191.94519 120.51181 189.6458 120.74789 187.3418 120.96289 C 159.0558 123.59689 130.56714 123.18252 102.36914 119.72852 C 95.190442 118.83852 88.032409 117.79491 80.912109 116.50391 C 73.343409 115.13591 68.080791 109.01819 67.212891 101.49219 C 66.809691 98.004186 67.874594 94.348372 68.558594 90.951172 C 69.242494 87.553972 69.697362 84.112772 71.226562 80.951172 C 72.713064 77.985072 75.070069 75.541819 77.980469 73.949219 C 81.526069 72.013519 85.273559 71.690638 89.193359 72.335938 C 92.435659 72.861738 95.665263 73.462019 98.914062 73.949219 C 99.881862 74.095419 100.85036 74.235594 101.81836 74.371094 C 102.23136 74.429194 104.27084 74.698575 103.08984 74.546875 C 104.61284 74.743675 106.13425 74.936487 107.65625 75.117188 C 121.72225 76.747888 135.8703 77.570831 150.0293 77.582031 C 153.5873 77.588431 157.14508 77.543819 160.70508 77.449219 C 167.69108 77.268519 174.66409 76.889047 181.62109 76.310547 C 185.12309 76.020147 188.61837 75.677197 192.10938 75.279297 C 193.88138 75.079197 195.65192 74.863013 197.41992 74.632812 L 197.97852 74.558594 L 198.54297 74.482422 L 198.56836 74.482422 C 198.89036 74.437722 199.19956 74.32575 199.47656 74.15625 C 199.75356 73.98675 199.99269 73.762194 200.17969 73.496094 C 200.36569 73.230094 200.49555 72.929728 200.56055 72.611328 C 200.62455 72.292928 200.62464 71.964184 200.55664 71.646484 C 199.63164 67.344784 198.70716 63.041834 197.78516 58.740234 C 197.78016 58.706334 197.77172 58.673325 197.76172 58.640625 L 197.37109 56.818359 C 197.06409 55.389159 196.81477 53.875172 196.25977 52.513672 C 194.51777 48.222872 189.48731 47.94545 185.57031 47.09375 C 182.92731 46.52595 180.26966 46.044384 177.59766 45.646484 L 176.68164 45.513672 C 176.22664 45.458772 175.77131 45.394644 175.32031 45.339844 C 174.13931 45.194644 172.95848 45.065959 171.77148 44.943359 C 166.25148 44.382059 160.70811 44.055831 155.16211 43.894531 C 143.73911 43.515531 132.30455 43.919163 120.93555 45.101562 C 119.62955 45.256462 118.30909 45.491025 116.99609 45.578125 L 116.97852 45.578125 C 116.27552 45.683525 115.57205 45.790691 114.87305 45.900391 C 112.77605 46.229491 110.68633 46.606828 108.61133 47.048828 L 108.56641 47.048828 C 108.32541 47.102328 108.11008 47.236688 107.95508 47.429688 C 107.80008 47.622687 107.71484 47.863828 107.71484 48.111328 C 107.71484 48.358728 107.80008 48.598016 107.95508 48.791016 C 108.11008 48.984016 108.32541 49.118275 108.56641 49.171875 C 110.96041 49.678375 113.38178 50.098291 115.80078 50.462891 L 116.98438 50.632812 L 117.23242 50.669922 L 118.375 50.814453 C 119.575 50.962853 120.77452 51.094903 121.97852 51.220703 C 124.62352 51.489603 127.27559 51.710566 129.93359 51.884766 C 135.76059 52.268766 141.60436 52.433594 147.44336 52.433594 C 153.38636 52.423894 159.33272 52.233313 165.26172 51.820312 C 167.90972 51.639613 170.55055 51.406947 173.18555 51.123047 C 174.46055 50.983247 175.73672 50.833175 177.01172 50.671875 L 177.41016 50.613281 C 177.96516 50.532681 178.51727 50.452334 179.07227 50.365234 C 182.83727 49.787734 186.16725 51.271456 187.40625 55.097656 C 188.44225 58.298056 186.18783 62.892941 182.67383 63.431641 C 179.69083 63.891941 176.70003 64.286134 173.70703 64.615234 C 161.60003 65.898734 149.41695 66.297641 137.25195 65.806641 C 126.27695 65.409841 115.1483 64.478016 104.4043 62.103516 C 100.5463 61.284316 96.786947 60.059872 93.185547 58.451172 C 90.420747 57.202572 87.812336 55.313878 86.273438 52.642578 C 84.108637 48.880778 85.078169 44.215719 88.042969 41.199219 C 90.459469 38.744119 93.732356 37.355466 96.910156 36.197266 C 105.60526 33.032366 115.24258 32.025759 124.39258 31.193359 C 132.07508 30.513359 139.78195 30.177139 147.49023 30.1875 z M 87.697266 85.65625 C 87.071104 85.653331 86.452569 85.682931 85.847656 85.753906 C 82.747256 86.124906 81.747209 89.600231 81.224609 92.207031 C 80.653509 95.052531 79.575731 99.794892 81.769531 102.15039 C 82.934131 103.39839 84.771144 103.70827 86.464844 103.94727 C 103.75044 106.38927 121.02633 108.32878 138.48633 108.92578 C 162.88333 109.72578 187.36605 107.91108 211.49805 104.33008 C 213.64951 104.01016 215.82648 103.37134 217.27148 101.99805 C 218.27648 101.04705 218.87903 99.747034 218.95703 98.365234 C 219.21203 95.193934 218.9947 91.439612 217.3457 88.632812 C 214.9427 84.512912 210.53169 85.851453 206.55469 86.564453 C 202.08869 87.364553 197.60637 88.065522 193.10938 88.669922 C 168.43537 91.973522 143.23517 92.326759 118.45117 90.068359 C 112.64417 89.539259 106.8597 88.834778 101.0957 87.955078 C 96.906731 87.320003 92.080394 85.676681 87.697266 85.65625 z M 80.705078 98.78125 C 80.766378 98.75225 80.653869 99.278237 80.605469 99.523438 C 80.595869 99.152438 80.614778 98.82315 80.705078 98.78125 z M 81.09375 101.80078 C 81.07765 101.81378 81.172519 101.9205 81.324219 102.0625 C 81.224219 101.9075 81.128003 101.77878 81.095703 101.80078 L 81.09375 101.80078 z M 82.248047 102.93359 C 82.273847 102.95359 82.297059 102.97795 82.318359 103.00195 C 82.305459 102.97995 82.269531 102.95559 82.269531 102.93359 L 82.251953 102.93359 L 82.248047 102.93359 z M 183.88281 135.23828 C 187.54285 135.23828 190.93675 135.66905 194.22461 136.38477 C 194.19035 137.02908 194.18735 137.67536 194.24609 138.32422 C 190.26838 174.02002 187.54656 209.92828 182.84375 245.47852 C 178.56824 253.81143 167.04863 252.84467 159.15625 253.45508 C 147.04451 253.0445 134.05244 255.28875 122.59961 250.56445 C 113.42457 243.87606 116.19762 231.05639 114.17578 221.39844 C 111.46265 197.39951 109.55143 173.24196 106.66797 149.26172 C 110.99138 150.01669 115.3859 150.41031 119.79688 150.41797 C 134.93286 150.41797 146.61134 145.88181 156.90234 141.88281 C 166.08034 138.31781 174.02281 135.23428 183.88281 135.23828 z "
     id="path4548" />
  <path
     d="M215.457 85.9722L215.293 85.8754L214.912 85.7593C215.065 85.8886 215.257 85.9635 215.457 85.9722Z"
     fill="#0D0C22"
     id="path4" />
  <path
     d="M217.856 103.104L217.672 103.156L217.856 103.104Z"
     fill="#0D0C22"
     id="path6" />
  <path
     d="M215.529 85.9457C215.505 85.9428 215.482 85.9373 215.46 85.9294C215.459 85.9446 215.459 85.9599 215.46 85.9751C215.485 85.9718 215.509 85.9617 215.529 85.9457Z"
     fill="#0D0C22"
     id="path8" />
  <path
     d="M215.459 85.9745H215.484V85.959L215.459 85.9745Z"
     fill="#0D0C22"
     id="path10" />
  <path
     d="M217.707 103.074L217.985 102.915L218.088 102.857L218.182 102.757C218.006 102.833 217.845 102.94 217.707 103.074Z"
     fill="#0D0C22"
     id="path12" />
  <path
     d="M215.938 86.3468L215.666 86.0886L215.482 85.9885C215.581 86.163 215.745 86.2916 215.938 86.3468Z"
     fill="#0D0C22"
     id="path14" />
  <path
     d="M147.755 252.596C147.538 252.69 147.349 252.837 147.203 253.022L147.374 252.913C147.49 252.806 147.655 252.68 147.755 252.596Z"
     fill="#0D0C22"
     id="path16" />
  <path
     d="M187.347 244.807C187.347 244.561 187.227 244.607 187.257 245.478C187.257 245.407 187.286 245.336 187.298 245.268C187.315 245.113 187.327 244.961 187.347 244.807Z"
     fill="#0D0C22"
     id="path18" />
  <path
     d="M183.241 252.596C183.025 252.69 182.835 252.837 182.689 253.022L182.86 252.913C182.977 252.806 183.141 252.68 183.241 252.596Z"
     fill="#0D0C22"
     id="path20" />
  <path
     d="M119.87 254.449C119.705 254.306 119.504 254.212 119.289 254.178C119.463 254.262 119.638 254.346 119.754 254.41L119.87 254.449Z"
     fill="#0D0C22"
     id="path22" />
  <path
     d="M113.594 248.44C113.569 248.186 113.491 247.94 113.365 247.717C113.454 247.949 113.528 248.186 113.588 248.427L113.594 248.44Z"
     fill="#0D0C22"
     id="path24" />
  <path
     d="M81.8789 102.587L82.0275 102.726L82.1244 102.784C82.0498 102.71 81.9675 102.644 81.8789 102.587Z"
     fill="#0D0C22"
     id="path28" />
</svg>
